# Created using SwiftConverter

# Vertex Array
v -10.145 1.000 -13.528
v -9.145 1.000 -14.528
v -10.145 1.000 -7.000
v -9.145 1.000 -6.000
v -18.253 1.000 -7.000
v -17.253 1.000 -6.000
v -18.253 1.000 0.000
v -17.253 1.000 -1.000
v -3.145 1.000 0.000
v -4.145 1.000 -1.000
v -3.145 1.000 -13.528
v -4.145 1.000 -14.528
v 0.000 1.000 -13.528
v -2.145 1.000 -14.528
v -6.645 1.000 -21.445
v -6.645 1.000 -19.890
v -13.290 1.000 -13.528
v -11.145 1.000 -14.528
v -18.253 0.000 -7.000
v -17.253 0.000 -6.000
v -10.145 0.000 -7.000
v -9.145 0.000 -6.000
v -10.145 0.000 -13.528
v -9.145 0.000 -14.528
v -13.290 0.000 -13.528
v -11.145 0.000 -14.528
v -6.645 0.000 -21.445
v -6.645 0.000 -19.890
v 0.000 0.000 -13.528
v -2.145 0.000 -14.528
v -3.145 0.000 -13.528
v -4.145 0.000 -14.528
v -3.145 0.000 0.000
v -4.145 0.000 -1.000
v -18.253 0.000 0.000
v -17.253 0.000 -1.000

# Normal Array
vn -0.000 1.000 0.000
vn -0.000 1.000 0.000
vn 0.000 1.000 -0.000
vn 0.000 1.000 0.000
vn -0.000 1.000 0.000
vn 0.000 1.000 0.000
vn -0.000 1.000 0.000
vn 0.000 1.000 0.000
vn -0.000 1.000 0.000
vn -0.000 1.000 0.000
vn -0.000 1.000 0.000
vn 0.000 1.000 0.000
vn -0.000 1.000 0.000
vn 0.000 1.000 -0.000
vn -0.000 1.000 0.000
vn 0.000 1.000 0.000
vn -0.000 1.000 0.000
vn 0.000 1.000 0.000
vn 0.000 -1.000 -0.000
vn 0.000 -1.000 -0.000
vn -0.000 -1.000 -0.000
vn -0.000 -1.000 -0.000
vn -0.000 -1.000 -0.000
vn 0.000 -1.000 -0.000
vn -0.000 -1.000 -0.000
vn 0.000 -1.000 -0.000
vn 0.000 -1.000 -0.000
vn 0.000 -1.000 -0.000
vn -0.000 -1.000 -0.000
vn 0.000 -1.000 -0.000
vn 0.000 -1.000 -0.000
vn -0.000 -1.000 -0.000
vn -0.000 -1.000 -0.000
vn 0.000 -1.000 -0.000
vn 0.000 -1.000 -0.000
vn -0.000 -1.000 -0.000
vn 0.000 -0.000 1.000
vn 0.000 -0.000 1.000
vn -1.000 0.000 0.000
vn -1.000 0.000 0.000
vn -0.000 -0.000 -1.000
vn 0.000 0.000 -1.000
vn -1.000 0.000 0.000
vn -1.000 0.000 0.000
vn -0.000 0.000 1.000
vn 0.000 0.000 1.000
vn -0.766 -0.000 -0.643
vn -0.766 0.000 -0.643
vn 0.766 0.000 -0.643
vn 0.766 0.000 -0.643
vn -0.000 0.000 1.000
vn 0.000 0.000 1.000
vn 1.000 0.000 0.000
vn 1.000 0.000 0.000
vn -0.000 -0.000 -1.000
vn 0.000 0.000 -1.000
vn 1.000 0.000 0.000
vn 1.000 0.000 0.000
vn -0.000 0.000 1.000
vn 0.000 0.000 1.000
vn 1.000 0.000 0.000
vn 1.000 0.000 0.000
vn -0.000 -0.000 -1.000
vn 0.000 0.000 -1.000
vn 0.766 0.000 0.643
vn 0.766 0.000 0.643
vn -0.766 0.000 0.643
vn -0.766 0.000 0.643
vn -0.000 -0.000 -1.000
vn 0.000 0.000 -1.000
vn -1.000 0.000 0.000
vn -1.000 0.000 0.000

# Facets
f 1//1 3//1 2//1
f 3//2 4//2 2//2
f 3//3 5//3 4//3
f 5//4 6//4 4//4
f 5//5 7//5 6//5
f 7//6 8//6 6//6
f 7//7 9//7 8//7
f 9//8 10//8 8//8
f 9//9 11//9 10//9
f 11//10 12//10 10//10
f 11//11 13//11 12//11
f 13//12 14//12 12//12
f 13//13 15//13 14//13
f 15//14 16//14 14//14
f 15//15 17//15 16//15
f 17//16 18//16 16//16
f 17//17 1//17 18//17
f 1//18 2//18 18//18
f 19//19 21//19 20//19
f 21//20 22//20 20//20
f 21//21 23//21 22//21
f 23//22 24//22 22//22
f 23//23 25//23 24//23
f 25//24 26//24 24//24
f 25//25 27//25 26//25
f 27//26 28//26 26//26
f 27//27 29//27 28//27
f 29//28 30//28 28//28
f 29//29 31//29 30//29
f 31//30 32//30 30//30
f 31//31 33//31 32//31
f 33//32 34//32 32//32
f 33//33 35//33 34//33
f 35//34 36//34 34//34
f 35//35 19//35 36//35
f 19//36 20//36 36//36
f 7//37 35//37 9//37
f 35//38 33//38 9//38
f 5//39 19//39 7//39
f 19//40 35//40 7//40
f 3//41 21//41 5//41
f 21//42 19//42 5//42
f 1//43 23//43 3//43
f 23//44 21//44 3//44
f 17//45 25//45 1//45
f 25//46 23//46 1//46
f 15//47 27//47 17//47
f 27//48 25//48 17//48
f 13//49 29//49 15//49
f 29//50 27//50 15//50
f 11//51 31//51 13//51
f 31//52 29//52 13//52
f 9//53 33//53 11//53
f 33//54 31//54 11//54
f 10//55 34//55 8//55
f 34//56 36//56 8//56
f 8//57 36//57 6//57
f 36//58 20//58 6//58
f 6//59 20//59 4//59
f 20//60 22//60 4//60
f 4//61 22//61 2//61
f 22//62 24//62 2//62
f 2//63 24//63 18//63
f 24//64 26//64 18//64
f 18//65 26//65 16//65
f 26//66 28//66 16//66
f 16//67 28//67 14//67
f 28//68 30//68 14//68
f 14//69 30//69 12//69
f 30//70 32//70 12//70
f 12//71 32//71 10//71
f 32//72 34//72 10//72

# Thankyou for using SwiftConverter

